<?xml version="1.0" encoding="UTF-8"?>
<svg xmlns="http://www.w3.org/2000/svg" xmlns:xlink="http://www.w3.org/1999/xlink" width="30px" height="30px" viewBox="0 0 30 30" version="1.1">
<g id="surface1">
<path style=" stroke:none;fill-rule:nonzero;fill:rgb(100%,86.666667%,3.529412%);fill-opacity:1;" d="M 3.101562 27.414062 L 26.378906 27.414062 L 26.378906 2.585938 L 3.101562 2.585938 Z M 3.101562 27.414062 "/>
<path style=" stroke:none;fill-rule:nonzero;fill:rgb(100%,100%,100%);fill-opacity:1;" d="M 1.550781 27.414062 L 3.101562 27.414062 L 3.101562 2.585938 L 1.550781 2.585938 Z M 1.550781 27.414062 "/>
<path style=" stroke:none;fill-rule:nonzero;fill:rgb(99.215686%,59.607843%,3.137255%);fill-opacity:1;" d="M 26.378906 4.65625 L 26.378906 27.414062 L 3.621094 27.414062 L 3.621094 29.484375 L 28.449219 29.484375 L 28.449219 4.65625 Z M 26.378906 4.65625 "/>
<path style=" stroke:none;fill-rule:nonzero;fill:rgb(98.823529%,76.470588%,3.529412%);fill-opacity:1;" d="M 3.621094 29.484375 L 26.898438 29.484375 L 26.898438 27.414062 L 3.621094 27.414062 Z M 3.621094 29.484375 "/>
<path style=" stroke:none;fill-rule:nonzero;fill:rgb(0%,0%,0%);fill-opacity:1;" d="M 26.378906 27.929688 L 1.550781 27.929688 C 1.242188 27.929688 1.035156 27.722656 1.035156 27.414062 L 1.035156 2.585938 C 1.035156 2.277344 1.242188 2.070312 1.550781 2.070312 L 26.378906 2.070312 C 26.691406 2.070312 26.898438 2.277344 26.898438 2.585938 L 26.898438 27.414062 C 26.898438 27.722656 26.691406 27.929688 26.378906 27.929688 Z M 2.070312 26.898438 L 25.863281 26.898438 L 25.863281 3.101562 L 2.070312 3.101562 Z M 2.070312 26.898438 "/>
<path style=" stroke:none;fill-rule:nonzero;fill:rgb(0%,0%,0%);fill-opacity:1;" d="M 28.449219 30 L 3.621094 30 C 3.308594 30 3.101562 29.792969 3.101562 29.484375 L 3.101562 27.414062 C 3.101562 27.101562 3.308594 26.898438 3.621094 26.898438 L 25.863281 26.898438 L 25.863281 4.65625 C 25.863281 4.34375 26.070312 4.136719 26.378906 4.136719 L 28.449219 4.136719 C 28.757812 4.136719 28.964844 4.34375 28.964844 4.65625 L 28.964844 29.484375 C 28.964844 29.792969 28.757812 30 28.449219 30 Z M 4.136719 28.964844 L 27.929688 28.964844 L 27.929688 5.171875 L 26.898438 5.171875 L 26.898438 27.414062 C 26.898438 27.722656 26.691406 27.929688 26.378906 27.929688 L 4.136719 27.929688 Z M 4.136719 28.964844 "/>
<path style=" stroke:none;fill-rule:nonzero;fill:rgb(0%,0%,0%);fill-opacity:1;" d="M 12.929688 7.242188 C 11.792969 7.242188 10.863281 6.308594 10.863281 5.171875 L 10.863281 2.070312 C 10.863281 0.929688 11.792969 0 12.929688 0 C 14.070312 0 15 0.929688 15 2.070312 C 15 2.378906 14.792969 2.585938 14.484375 2.585938 C 14.171875 2.585938 13.964844 2.378906 13.964844 2.070312 C 13.964844 1.5 13.5 1.035156 12.929688 1.035156 C 12.363281 1.035156 11.898438 1.5 11.898438 2.070312 L 11.898438 5.171875 C 11.898438 5.742188 12.363281 6.207031 12.929688 6.207031 C 13.5 6.207031 13.964844 5.742188 13.964844 5.171875 C 13.964844 4.863281 14.171875 4.65625 14.484375 4.65625 C 14.792969 4.65625 15 4.863281 15 5.171875 C 15 6.308594 14.070312 7.242188 12.929688 7.242188 Z M 12.929688 7.242188 "/>
<path style=" stroke:none;fill-rule:nonzero;fill:rgb(0%,0%,0%);fill-opacity:1;" d="M 21.207031 11.378906 L 19.136719 11.378906 C 18.828125 11.378906 18.621094 11.171875 18.621094 10.863281 C 18.621094 10.550781 18.828125 10.34375 19.136719 10.34375 L 21.207031 10.34375 C 21.515625 10.34375 21.722656 10.550781 21.722656 10.863281 C 21.722656 11.171875 21.515625 11.378906 21.207031 11.378906 Z M 21.207031 11.378906 "/>
<path style=" stroke:none;fill-rule:nonzero;fill:rgb(0%,0%,0%);fill-opacity:1;" d="M 17.070312 11.378906 L 13.449219 11.378906 C 13.136719 11.378906 12.929688 11.171875 12.929688 10.863281 C 12.929688 10.550781 13.136719 10.34375 13.449219 10.34375 L 17.070312 10.34375 C 17.378906 10.34375 17.585938 10.550781 17.585938 10.863281 C 17.585938 11.171875 17.378906 11.378906 17.070312 11.378906 Z M 17.070312 11.378906 "/>
<path style=" stroke:none;fill-rule:nonzero;fill:rgb(0%,0%,0%);fill-opacity:1;" d="M 11.378906 11.378906 L 6.722656 11.378906 C 6.414062 11.378906 6.207031 11.171875 6.207031 10.863281 C 6.207031 10.550781 6.414062 10.34375 6.722656 10.34375 L 11.378906 10.34375 C 11.691406 10.34375 11.898438 10.550781 11.898438 10.863281 C 11.898438 11.171875 11.691406 11.378906 11.378906 11.378906 Z M 11.378906 11.378906 "/>
<path style=" stroke:none;fill-rule:nonzero;fill:rgb(0%,0%,0%);fill-opacity:1;" d="M 21.207031 14.484375 L 17.070312 14.484375 C 16.757812 14.484375 16.550781 14.277344 16.550781 13.964844 C 16.550781 13.65625 16.757812 13.449219 17.070312 13.449219 L 21.207031 13.449219 C 21.515625 13.449219 21.722656 13.65625 21.722656 13.964844 C 21.722656 14.277344 21.515625 14.484375 21.207031 14.484375 Z M 21.207031 14.484375 "/>
<path style=" stroke:none;fill-rule:nonzero;fill:rgb(0%,0%,0%);fill-opacity:1;" d="M 13.964844 14.484375 L 10.34375 14.484375 C 10.035156 14.484375 9.828125 14.277344 9.828125 13.964844 C 9.828125 13.65625 10.035156 13.449219 10.34375 13.449219 L 13.964844 13.449219 C 14.277344 13.449219 14.484375 13.65625 14.484375 13.964844 C 14.484375 14.277344 14.277344 14.484375 13.964844 14.484375 Z M 13.964844 14.484375 "/>
<path style=" stroke:none;fill-rule:nonzero;fill:rgb(0%,0%,0%);fill-opacity:1;" d="M 8.277344 14.484375 L 6.722656 14.484375 C 6.414062 14.484375 6.207031 14.277344 6.207031 13.964844 C 6.207031 13.65625 6.414062 13.449219 6.722656 13.449219 L 8.277344 13.449219 C 8.585938 13.449219 8.792969 13.65625 8.792969 13.964844 C 8.792969 14.277344 8.585938 14.484375 8.277344 14.484375 Z M 8.277344 14.484375 "/>
<path style=" stroke:none;fill-rule:nonzero;fill:rgb(0%,0%,0%);fill-opacity:1;" d="M 21.207031 17.585938 L 19.65625 17.585938 C 19.34375 17.585938 19.136719 17.378906 19.136719 17.070312 C 19.136719 16.757812 19.34375 16.550781 19.65625 16.550781 L 21.207031 16.550781 C 21.515625 16.550781 21.722656 16.757812 21.722656 17.070312 C 21.722656 17.378906 21.515625 17.585938 21.207031 17.585938 Z M 21.207031 17.585938 "/>
<path style=" stroke:none;fill-rule:nonzero;fill:rgb(0%,0%,0%);fill-opacity:1;" d="M 17.585938 17.585938 L 12.414062 17.585938 C 12.101562 17.585938 11.898438 17.378906 11.898438 17.070312 C 11.898438 16.757812 12.101562 16.550781 12.414062 16.550781 L 17.585938 16.550781 C 17.898438 16.550781 18.101562 16.757812 18.101562 17.070312 C 18.101562 17.378906 17.898438 17.585938 17.585938 17.585938 Z M 17.585938 17.585938 "/>
<path style=" stroke:none;fill-rule:nonzero;fill:rgb(0%,0%,0%);fill-opacity:1;" d="M 9.308594 17.585938 L 6.722656 17.585938 C 6.414062 17.585938 6.207031 17.378906 6.207031 17.070312 C 6.207031 16.757812 6.414062 16.550781 6.722656 16.550781 L 9.308594 16.550781 C 9.621094 16.550781 9.828125 16.757812 9.828125 17.070312 C 9.828125 17.378906 9.621094 17.585938 9.308594 17.585938 Z M 9.308594 17.585938 "/>
<path style=" stroke:none;fill-rule:nonzero;fill:rgb(0%,0%,0%);fill-opacity:1;" d="M 21.207031 20.691406 L 15.515625 20.691406 C 15.207031 20.691406 15 20.484375 15 20.171875 C 15 19.863281 15.207031 19.65625 15.515625 19.65625 L 21.207031 19.65625 C 21.515625 19.65625 21.722656 19.863281 21.722656 20.171875 C 21.722656 20.484375 21.515625 20.691406 21.207031 20.691406 Z M 21.207031 20.691406 "/>
<path style=" stroke:none;fill-rule:nonzero;fill:rgb(0%,0%,0%);fill-opacity:1;" d="M 12.414062 20.691406 L 10.34375 20.691406 C 10.035156 20.691406 9.828125 20.484375 9.828125 20.171875 C 9.828125 19.863281 10.035156 19.65625 10.34375 19.65625 L 12.414062 19.65625 C 12.722656 19.65625 12.929688 19.863281 12.929688 20.171875 C 12.929688 20.484375 12.722656 20.691406 12.414062 20.691406 Z M 12.414062 20.691406 "/>
<path style=" stroke:none;fill-rule:nonzero;fill:rgb(0%,0%,0%);fill-opacity:1;" d="M 8.277344 20.691406 L 6.722656 20.691406 C 6.414062 20.691406 6.207031 20.484375 6.207031 20.171875 C 6.207031 19.863281 6.414062 19.65625 6.722656 19.65625 L 8.277344 19.65625 C 8.585938 19.65625 8.792969 19.863281 8.792969 20.171875 C 8.792969 20.484375 8.585938 20.691406 8.277344 20.691406 Z M 8.277344 20.691406 "/>
</g>
</svg>
