<?xml version="1.0" encoding="UTF-8"?>
<svg xmlns="http://www.w3.org/2000/svg" xmlns:xlink="http://www.w3.org/1999/xlink" width="30px" height="28px" viewBox="0 0 29 28" version="1.1">
<g id="surface1">
<path style=" stroke:none;fill-rule:nonzero;fill:rgb(100%,80%,0%);fill-opacity:1;" d="M 23.457031 27.960938 L 14.496094 23.191406 L 5.535156 27.957031 L 7.246094 17.855469 L 0 10.699219 L 10.019531 9.226562 L 14.5 0.0351562 L 18.980469 9.226562 L 29 10.703125 L 21.746094 17.859375 Z M 23.457031 27.960938 "/>
<path style=" stroke:none;fill-rule:nonzero;fill:rgb(100%,90.196078%,50.196078%);fill-opacity:1;" d="M 19.011719 9.171875 C 14.472656 15.425781 14.421875 15.492188 14.421875 15.492188 L 28.96875 10.667969 Z M 19.011719 9.171875 "/>
<path style=" stroke:none;fill-rule:nonzero;fill:rgb(100%,86.666667%,33.333333%);fill-opacity:1;" d="M 14.496094 15.359375 L 14.496094 23.210938 L 5.445312 27.914062 Z M 14.496094 15.359375 "/>
<path style=" stroke:none;fill-rule:nonzero;fill:rgb(100%,86.666667%,33.333333%);fill-opacity:1;" d="M 14.496094 15.359375 L 23.398438 27.675781 L 21.726562 17.699219 Z M 14.496094 15.359375 "/>
<path style=" stroke:none;fill-rule:nonzero;fill:rgb(100%,90.196078%,50.196078%);fill-opacity:1;" d="M 0.0585938 10.679688 L 14.5 15.359375 L 10.035156 9.183594 Z M 0.0585938 10.679688 "/>
<path style=" stroke:none;fill-rule:nonzero;fill:rgb(100%,86.666667%,33.333333%);fill-opacity:1;" d="M 14.496094 15.359375 L 14.496094 0.0546875 L 18.953125 9.179688 Z M 14.496094 15.359375 "/>
<path style=" stroke:none;fill-rule:nonzero;fill:rgb(100%,83.137255%,16.470588%);fill-opacity:1;" d="M 5.539062 27.789062 L 7.21875 17.726562 L 14.5 15.359375 Z M 5.539062 27.789062 "/>
</g>
</svg>
